<svg xmlns="http://www.w3.org/2000/svg" viewBox="0 0 240 120"><path fill="#292334" d="M0 91h240v29H0z"/><g fill="#5F596D" stroke="#171120" stroke-width="7"><path d="M12 92V28h36v64z"/><path d="M192 92V28h36v64z"/></g><g fill="#E8DFC4"><path d="M18 35h24v9H18zm180 0h24v9h-24z"/></g><g fill="none" stroke="#D9CFAA" stroke-width="6"><path d="M94 8v30m52-30v30"/><path d="M76 55c5-29 41-29 46 0H76Zm52 0c5-29 41-29 46 0h-46Z"/></g><g fill="#9B7ADC"><circle cx="99" cy="71" r="5"/><circle cx="151" cy="71" r="5"/></g><path fill="none" stroke="#766C9F" stroke-dasharray="8 7" stroke-width="4" d="M65 102c35-21 75-21 110 0"/></svg>
