<svg xmlns="http://www.w3.org/2000/svg" viewBox="0 0 240 120"><path fill="#1D1C31" d="M0 92h240v28H0z"/><g fill="none" stroke="#514257" stroke-linecap="round" stroke-width="13"><path d="M20 99 47 11m-5 32L22 30m25 15 23-20m118 74-3-88m4 38 25-23m-29 32-23-20"/></g><g fill="#B7759E"><path d="M70 98c2-22 17-26 25 0H70Z"/><path d="M129 102c2-18 14-22 21 0h-21Z"/></g><g fill="#F2A35C"><circle cx="47" cy="45" r="5"/><circle cx="185" cy="49" r="5"/><circle cx="101" cy="75" r="4"/></g><path fill="none" stroke="#E8DFC4" stroke-width="7" d="m4 111 33-24 31 24m102 0 28-25 38 25"/></svg>
