<svg xmlns="http://www.w3.org/2000/svg" viewBox="0 0 240 120"><path fill="#203537" d="M0 84h240v36H0z"/><g fill="#527B6A"><ellipse cx="54" cy="95" rx="42" ry="15"/><ellipse cx="171" cy="102" rx="56" ry="14"/></g><g fill="#B7759E"><path d="M18 75c4-28 24-35 39 0H18Z"/><path d="M137 72c4-34 28-41 46 0h-46Z"/><path d="M198 88c3-22 18-28 30 0h-30Z"/></g><g fill="#E8DFC4"><path d="M33 72h9v32h-9zm122-3h10v37h-10zm56 16h8v23h-8z"/></g><g fill="#D8C4FF"><circle cx="38" cy="57" r="4"/><circle cx="159" cy="48" r="5"/><circle cx="215" cy="74" r="3"/></g></svg>
