<svg xmlns="http://www.w3.org/2000/svg" viewBox="0 0 64 64">
  <path fill="#161126" d="M9 8c5-5 13 0 11 6l11 9 12-12c-2-7 7-11 11-6 3 3 2 8-1 10 5 3 4 11-1 13-4 2-9-2-8-7L35 32l10 9c6-2 11 5 7 10-2 3-7 3-10 0-2 5-10 5-12 0-2-4 1-9 6-9l-8-7-10 10c2 6-5 11-10 7-3-2-3-7 0-10-6-2-5-11 1-13 4-1 8 2 8 7l7-8-12-9c-6 2-10-6-3-11Z"/>
  <path fill="#E8DFC4" d="M11 11c3-3 7 1 4 4l14 12L47 10c-1-4 4-6 6-3 2 2 0 5-2 6 4 1 3 6 0 8-3 1-5-2-4-5L33 30l14 14c4-1 6 4 3 6-2 2-5 0-6-2-1 4-6 3-8 0-1-3 2-5 5-4L29 33 14 48c1 4-4 6-6 3-2-2 0-5 2-6-4-1-3-6 0-8 3-1 5 2 4 5l12-13-13-11c-4 1-6-5-2-7Z"/>
</svg>
